# xmcd
#
# Track frame offsets:
#	150
#	19237
#	35518
#	54485
#	73994
#	89341
#	106650
#	123685
#	140889
#	160344
#	178218
#	195786
#	214579
#	233318
#	251893
#	281746
#
# Disc length: 3765 seconds
#
# Revision: 1
# Processed by: cddbd v1.5.2PL0 Copyright (c) Steve Scherf et al.
# Submitted via: audiograbber 1.83.01
#
DISCID=ea0eb310
DTITLE=Sound Choice - SC9003
DYEAR=2007
DGENRE=Karaoke
TTITLE0=Urban, Keith - I Told You So
TTITLE1=Swift, Taylor - Teardrops on My Guitar
TTITLE2=Little Big Town - Little More You, a
TTITLE3=Paisley, Brad - Ticks
TTITLE4=Aldean, Jason - Johnny Cash
TTITLE5=Wilson, Gretchen - One of the Boys
TTITLE6=Rascal Flatts - What Hurts the Most
TTITLE7=Big and Rich - Lost in This Moment
TTITLE8=McBride, Martina - Anyway
TTITLE9=Tomlinson, Trent - One Wing in the Fire
TTITLE10=Little Big Town - Good As Gone
TTITLE11=Pickler, Kellie - I Wonder
TTITLE12=Owen, Jake - Startin' With Me
TTITLE13=Paisley, Brad - Time Well Wasted
TTITLE14=Lawrence, Tracy - Find Out Who Your Friends Are
TTITLE15=Data Track - Data Track
EXTD=
EXTT0=
EXTT1=
EXTT2=
EXTT3=
EXTT4=
EXTT5=
EXTT6=
EXTT7=
EXTT8=
EXTT9=
EXTT10=
EXTT11=
EXTT12=
EXTT13=
EXTT14=
EXTT15=
PLAYORDER=
